<svg xmlns="http://www.w3.org/2000/svg" width="1600" height="900" viewBox="0 0 1600 900"><defs><linearGradient id="b" y2="1"><stop stop-color="#f1d5a1"/><stop offset="1" stop-color="#8a5737"/></linearGradient></defs><rect width="1600" height="900" fill="url(#b)"/><g fill="#4a2d24" opacity=".72"><path d="M250 780q100-180 240-240l180 40-50 110-160-30-90 120z"/><path d="M1350 780q-100-180-240-240l-180 40 50 110 160-30 90 120z"/></g><g fill="#4a2d24" opacity=".55"><path d="M690 640l-160-210 35-25 170 190z"/><path d="M790 640l-30-250 45-4 35 250z"/><path d="M900 640l130-220 40 30-125 225z"/></g><circle cx="800" cy="360" r="260" fill="#fff1c8" opacity=".18"/></svg>