<svg xmlns="http://www.w3.org/2000/svg" width="1600" height="900" viewBox="0 0 1600 900"><rect width="1600" height="900" fill="#33261e"/><rect x="190" y="120" width="1220" height="670" rx="12" fill="#eadfc9" transform="rotate(-3 800 455)"/><g stroke="#6d6256" stroke-width="7" opacity=".38"><path d="M300 260h940M290 330h980M300 400h900M300 470h970M320 540h850M330 610h900"/></g><g stroke="#a84635" stroke-width="10" opacity=".72"><path d="M470 300l180 30M720 370l210 36M420 500l260-45M820 560l190 28"/></g><g fill="#e8bd53"><rect x="1170" y="170" width="70" height="170" transform="rotate(8 1170 170)"/><rect x="290" y="570" width="70" height="170" transform="rotate(-8 290 570)"/></g><circle cx="1290" cy="700" r="70" fill="#201914" opacity=".8"/></svg>